<mxfile host="app.diagrams.net" modified="2021-11-23T08:51:02.715Z" agent="5.0 (X11; Linux x86_64) AppleWebKit/537.36 (KHTML, like Gecko) Chrome/94.0.4606.61 Safari/537.36 Edg/94.0.992.31" etag="vO6FpAdi7LKRVWB8aRxN" version="15.8.3" type="github">
  <diagram id="S_pf7_70spsncW8PTBB0" name="Page-1">
    <mxGraphModel dx="1350" dy="1942" grid="1" gridSize="10" guides="1" tooltips="1" connect="1" arrows="1" fold="1" page="1" pageScale="1" pageWidth="827" pageHeight="1169" math="0" shadow="0">
      <root>
        <mxCell id="0" />
        <mxCell id="1" parent="0" />
        <mxCell id="atyfBygB2vvasssAfOce-1" value="Registry" style="swimlane;fontStyle=1;align=center;verticalAlign=top;childLayout=stackLayout;horizontal=1;startSize=26;horizontalStack=0;resizeParent=1;resizeParentMax=0;resizeLast=0;collapsible=1;marginBottom=0;" vertex="1" parent="1">
          <mxGeometry x="40" y="80" width="240" height="154" as="geometry" />
        </mxCell>
        <mxCell id="atyfBygB2vvasssAfOce-11" value="+ get(void): static Registry&lt;T&gt;&amp;" style="text;strokeColor=none;fillColor=none;align=left;verticalAlign=top;spacingLeft=4;spacingRight=4;overflow=hidden;rotatable=0;points=[[0,0.5],[1,0.5]];portConstraint=eastwest;" vertex="1" parent="atyfBygB2vvasssAfOce-1">
          <mxGeometry y="26" width="240" height="26" as="geometry" />
        </mxCell>
        <mxCell id="atyfBygB2vvasssAfOce-12" value="" style="line;strokeWidth=1;fillColor=none;align=left;verticalAlign=middle;spacingTop=-1;spacingLeft=3;spacingRight=3;rotatable=0;labelPosition=right;points=[];portConstraint=eastwest;" vertex="1" parent="atyfBygB2vvasssAfOce-1">
          <mxGeometry y="52" width="240" height="8" as="geometry" />
        </mxCell>
        <mxCell id="atyfBygB2vvasssAfOce-4" value="+ createOjb(const std::string&amp; name): T&amp;" style="text;strokeColor=none;fillColor=none;align=left;verticalAlign=top;spacingLeft=4;spacingRight=4;overflow=hidden;rotatable=0;points=[[0,0.5],[1,0.5]];portConstraint=eastwest;" vertex="1" parent="atyfBygB2vvasssAfOce-1">
          <mxGeometry y="60" width="240" height="26" as="geometry" />
        </mxCell>
        <mxCell id="atyfBygB2vvasssAfOce-10" value="" style="line;strokeWidth=1;fillColor=none;align=left;verticalAlign=middle;spacingTop=-1;spacingLeft=3;spacingRight=3;rotatable=0;labelPosition=right;points=[];portConstraint=eastwest;" vertex="1" parent="atyfBygB2vvasssAfOce-1">
          <mxGeometry y="86" width="240" height="8" as="geometry" />
        </mxCell>
        <mxCell id="atyfBygB2vvasssAfOce-13" value="+ print(void): void" style="text;strokeColor=none;fillColor=none;align=left;verticalAlign=top;spacingLeft=4;spacingRight=4;overflow=hidden;rotatable=0;points=[[0,0.5],[1,0.5]];portConstraint=eastwest;" vertex="1" parent="atyfBygB2vvasssAfOce-1">
          <mxGeometry y="94" width="240" height="26" as="geometry" />
        </mxCell>
        <mxCell id="atyfBygB2vvasssAfOce-14" value="" style="line;strokeWidth=1;fillColor=none;align=left;verticalAlign=middle;spacingTop=-1;spacingLeft=3;spacingRight=3;rotatable=0;labelPosition=right;points=[];portConstraint=eastwest;" vertex="1" parent="atyfBygB2vvasssAfOce-1">
          <mxGeometry y="120" width="240" height="8" as="geometry" />
        </mxCell>
        <mxCell id="atyfBygB2vvasssAfOce-9" value="+ mObjs: std::vector&lt;T*&gt;" style="text;strokeColor=none;fillColor=none;align=left;verticalAlign=top;spacingLeft=4;spacingRight=4;overflow=hidden;rotatable=0;points=[[0,0.5],[1,0.5]];portConstraint=eastwest;" vertex="1" parent="atyfBygB2vvasssAfOce-1">
          <mxGeometry y="128" width="240" height="26" as="geometry" />
        </mxCell>
        <mxCell id="atyfBygB2vvasssAfOce-5" value="Op" style="swimlane;fontStyle=1;align=center;verticalAlign=top;childLayout=stackLayout;horizontal=1;startSize=26;horizontalStack=0;resizeParent=1;resizeParentMax=0;resizeLast=0;collapsible=1;marginBottom=0;" vertex="1" parent="1">
          <mxGeometry x="440" y="40" width="280" height="222" as="geometry" />
        </mxCell>
        <mxCell id="atyfBygB2vvasssAfOce-8" value="+ set_num_inputs(size_t): Op&amp;" style="text;strokeColor=none;fillColor=none;align=left;verticalAlign=top;spacingLeft=4;spacingRight=4;overflow=hidden;rotatable=0;points=[[0,0.5],[1,0.5]];portConstraint=eastwest;" vertex="1" parent="atyfBygB2vvasssAfOce-5">
          <mxGeometry y="26" width="280" height="26" as="geometry" />
        </mxCell>
        <mxCell id="atyfBygB2vvasssAfOce-16" value="" style="line;strokeWidth=1;fillColor=none;align=left;verticalAlign=middle;spacingTop=-1;spacingLeft=3;spacingRight=3;rotatable=0;labelPosition=right;points=[];portConstraint=eastwest;" vertex="1" parent="atyfBygB2vvasssAfOce-5">
          <mxGeometry y="52" width="280" height="8" as="geometry" />
        </mxCell>
        <mxCell id="atyfBygB2vvasssAfOce-19" value="+ describe(std::string): Op&amp;" style="text;strokeColor=none;fillColor=none;align=left;verticalAlign=top;spacingLeft=4;spacingRight=4;overflow=hidden;rotatable=0;points=[[0,0.5],[1,0.5]];portConstraint=eastwest;" vertex="1" parent="atyfBygB2vvasssAfOce-5">
          <mxGeometry y="60" width="280" height="26" as="geometry" />
        </mxCell>
        <mxCell id="atyfBygB2vvasssAfOce-20" value="" style="line;strokeWidth=1;fillColor=none;align=left;verticalAlign=middle;spacingTop=-1;spacingLeft=3;spacingRight=3;rotatable=0;labelPosition=right;points=[];portConstraint=eastwest;" vertex="1" parent="atyfBygB2vvasssAfOce-5">
          <mxGeometry y="86" width="280" height="8" as="geometry" />
        </mxCell>
        <mxCell id="atyfBygB2vvasssAfOce-21" value="template &lt;typename T&gt; friend class Registry" style="text;strokeColor=#d79b00;fillColor=#ffe6cc;align=left;verticalAlign=top;spacingLeft=4;spacingRight=4;overflow=hidden;rotatable=0;points=[[0,0.5],[1,0.5]];portConstraint=eastwest;" vertex="1" parent="atyfBygB2vvasssAfOce-5">
          <mxGeometry y="94" width="280" height="26" as="geometry" />
        </mxCell>
        <mxCell id="atyfBygB2vvasssAfOce-22" value="" style="line;strokeWidth=1;fillColor=none;align=left;verticalAlign=middle;spacingTop=-1;spacingLeft=3;spacingRight=3;rotatable=0;labelPosition=right;points=[];portConstraint=eastwest;" vertex="1" parent="atyfBygB2vvasssAfOce-5">
          <mxGeometry y="120" width="280" height="8" as="geometry" />
        </mxCell>
        <mxCell id="atyfBygB2vvasssAfOce-15" value="+ name: std::string" style="text;strokeColor=none;fillColor=none;align=left;verticalAlign=top;spacingLeft=4;spacingRight=4;overflow=hidden;rotatable=0;points=[[0,0.5],[1,0.5]];portConstraint=eastwest;" vertex="1" parent="atyfBygB2vvasssAfOce-5">
          <mxGeometry y="128" width="280" height="26" as="geometry" />
        </mxCell>
        <mxCell id="atyfBygB2vvasssAfOce-7" value="" style="line;strokeWidth=1;fillColor=none;align=left;verticalAlign=middle;spacingTop=-1;spacingLeft=3;spacingRight=3;rotatable=0;labelPosition=right;points=[];portConstraint=eastwest;" vertex="1" parent="atyfBygB2vvasssAfOce-5">
          <mxGeometry y="154" width="280" height="8" as="geometry" />
        </mxCell>
        <mxCell id="atyfBygB2vvasssAfOce-6" value="+ num_inputs: size_t" style="text;strokeColor=none;fillColor=none;align=left;verticalAlign=top;spacingLeft=4;spacingRight=4;overflow=hidden;rotatable=0;points=[[0,0.5],[1,0.5]];portConstraint=eastwest;" vertex="1" parent="atyfBygB2vvasssAfOce-5">
          <mxGeometry y="162" width="280" height="26" as="geometry" />
        </mxCell>
        <mxCell id="atyfBygB2vvasssAfOce-18" value="" style="line;strokeWidth=1;fillColor=none;align=left;verticalAlign=middle;spacingTop=-1;spacingLeft=3;spacingRight=3;rotatable=0;labelPosition=right;points=[];portConstraint=eastwest;" vertex="1" parent="atyfBygB2vvasssAfOce-5">
          <mxGeometry y="188" width="280" height="8" as="geometry" />
        </mxCell>
        <mxCell id="atyfBygB2vvasssAfOce-17" value="+ std::string: desc" style="text;strokeColor=none;fillColor=none;align=left;verticalAlign=top;spacingLeft=4;spacingRight=4;overflow=hidden;rotatable=0;points=[[0,0.5],[1,0.5]];portConstraint=eastwest;" vertex="1" parent="atyfBygB2vvasssAfOce-5">
          <mxGeometry y="196" width="280" height="26" as="geometry" />
        </mxCell>
        <mxCell id="atyfBygB2vvasssAfOce-23" value="Use" style="endArrow=open;endSize=12;dashed=1;html=1;rounded=0;exitX=1.013;exitY=0.117;exitDx=0;exitDy=0;exitPerimeter=0;" edge="1" parent="1" source="atyfBygB2vvasssAfOce-1">
          <mxGeometry width="160" relative="1" as="geometry">
            <mxPoint x="320" y="151" as="sourcePoint" />
            <mxPoint x="440" y="150.5" as="targetPoint" />
            <Array as="points">
              <mxPoint x="360" y="98" />
              <mxPoint x="360" y="151" />
            </Array>
          </mxGeometry>
        </mxCell>
        <mxCell id="atyfBygB2vvasssAfOce-24" value="&lt;h1&gt;友元&lt;/h1&gt;&lt;p&gt;Registry是Op的友元，那么就可以在Registry访问到Op的成员&lt;/p&gt;" style="text;html=1;strokeColor=none;fillColor=none;spacing=5;spacingTop=-20;whiteSpace=wrap;overflow=hidden;rounded=0;" vertex="1" parent="1">
          <mxGeometry x="40" y="-80" width="190" height="120" as="geometry" />
        </mxCell>
        <mxCell id="atyfBygB2vvasssAfOce-25" value="Registry" style="swimlane;fontStyle=1;align=center;verticalAlign=top;childLayout=stackLayout;horizontal=1;startSize=26;horizontalStack=0;resizeParent=1;resizeParentMax=0;resizeLast=0;collapsible=1;marginBottom=0;" vertex="1" parent="1">
          <mxGeometry x="40" y="480" width="240" height="188" as="geometry" />
        </mxCell>
        <mxCell id="atyfBygB2vvasssAfOce-26" value="+ get(void): static Registry&lt;T&gt;&amp;" style="text;strokeColor=none;fillColor=none;align=left;verticalAlign=top;spacingLeft=4;spacingRight=4;overflow=hidden;rotatable=0;points=[[0,0.5],[1,0.5]];portConstraint=eastwest;" vertex="1" parent="atyfBygB2vvasssAfOce-25">
          <mxGeometry y="26" width="240" height="26" as="geometry" />
        </mxCell>
        <mxCell id="atyfBygB2vvasssAfOce-27" value="" style="line;strokeWidth=1;fillColor=none;align=left;verticalAlign=middle;spacingTop=-1;spacingLeft=3;spacingRight=3;rotatable=0;labelPosition=right;points=[];portConstraint=eastwest;" vertex="1" parent="atyfBygB2vvasssAfOce-25">
          <mxGeometry y="52" width="240" height="8" as="geometry" />
        </mxCell>
        <mxCell id="atyfBygB2vvasssAfOce-28" value="+ createOjb(const std::string&amp; name): T&amp;" style="text;strokeColor=none;fillColor=none;align=left;verticalAlign=top;spacingLeft=4;spacingRight=4;overflow=hidden;rotatable=0;points=[[0,0.5],[1,0.5]];portConstraint=eastwest;" vertex="1" parent="atyfBygB2vvasssAfOce-25">
          <mxGeometry y="60" width="240" height="26" as="geometry" />
        </mxCell>
        <mxCell id="atyfBygB2vvasssAfOce-48" value="" style="line;strokeWidth=1;fillColor=none;align=left;verticalAlign=middle;spacingTop=-1;spacingLeft=3;spacingRight=3;rotatable=0;labelPosition=right;points=[];portConstraint=eastwest;" vertex="1" parent="atyfBygB2vvasssAfOce-25">
          <mxGeometry y="86" width="240" height="8" as="geometry" />
        </mxCell>
        <mxCell id="atyfBygB2vvasssAfOce-30" value="+ print(void): void" style="text;strokeColor=none;fillColor=none;align=left;verticalAlign=top;spacingLeft=4;spacingRight=4;overflow=hidden;rotatable=0;points=[[0,0.5],[1,0.5]];portConstraint=eastwest;" vertex="1" parent="atyfBygB2vvasssAfOce-25">
          <mxGeometry y="94" width="240" height="26" as="geometry" />
        </mxCell>
        <mxCell id="atyfBygB2vvasssAfOce-31" value="" style="line;strokeWidth=1;fillColor=none;align=left;verticalAlign=middle;spacingTop=-1;spacingLeft=3;spacingRight=3;rotatable=0;labelPosition=right;points=[];portConstraint=eastwest;" vertex="1" parent="atyfBygB2vvasssAfOce-25">
          <mxGeometry y="120" width="240" height="8" as="geometry" />
        </mxCell>
        <mxCell id="atyfBygB2vvasssAfOce-32" value="+ mObjs: std::vector&lt;T*&gt;" style="text;strokeColor=none;fillColor=none;align=left;verticalAlign=top;spacingLeft=4;spacingRight=4;overflow=hidden;rotatable=0;points=[[0,0.5],[1,0.5]];portConstraint=eastwest;" vertex="1" parent="atyfBygB2vvasssAfOce-25">
          <mxGeometry y="128" width="240" height="26" as="geometry" />
        </mxCell>
        <mxCell id="atyfBygB2vvasssAfOce-29" value="" style="line;strokeWidth=1;fillColor=none;align=left;verticalAlign=middle;spacingTop=-1;spacingLeft=3;spacingRight=3;rotatable=0;labelPosition=right;points=[];portConstraint=eastwest;" vertex="1" parent="atyfBygB2vvasssAfOce-25">
          <mxGeometry y="154" width="240" height="8" as="geometry" />
        </mxCell>
        <mxCell id="atyfBygB2vvasssAfOce-47" value="+ m_op: Op" style="text;strokeColor=#b85450;fillColor=#f8cecc;align=left;verticalAlign=top;spacingLeft=4;spacingRight=4;overflow=hidden;rotatable=0;points=[[0,0.5],[1,0.5]];portConstraint=eastwest;" vertex="1" parent="atyfBygB2vvasssAfOce-25">
          <mxGeometry y="162" width="240" height="26" as="geometry" />
        </mxCell>
        <mxCell id="atyfBygB2vvasssAfOce-33" value="Op" style="swimlane;fontStyle=1;align=center;verticalAlign=top;childLayout=stackLayout;horizontal=1;startSize=26;horizontalStack=0;resizeParent=1;resizeParentMax=0;resizeLast=0;collapsible=1;marginBottom=0;" vertex="1" parent="1">
          <mxGeometry x="440" y="480" width="280" height="188" as="geometry" />
        </mxCell>
        <mxCell id="atyfBygB2vvasssAfOce-34" value="+ set_num_inputs(size_t): Op&amp;" style="text;strokeColor=none;fillColor=none;align=left;verticalAlign=top;spacingLeft=4;spacingRight=4;overflow=hidden;rotatable=0;points=[[0,0.5],[1,0.5]];portConstraint=eastwest;" vertex="1" parent="atyfBygB2vvasssAfOce-33">
          <mxGeometry y="26" width="280" height="26" as="geometry" />
        </mxCell>
        <mxCell id="atyfBygB2vvasssAfOce-35" value="" style="line;strokeWidth=1;fillColor=none;align=left;verticalAlign=middle;spacingTop=-1;spacingLeft=3;spacingRight=3;rotatable=0;labelPosition=right;points=[];portConstraint=eastwest;" vertex="1" parent="atyfBygB2vvasssAfOce-33">
          <mxGeometry y="52" width="280" height="8" as="geometry" />
        </mxCell>
        <mxCell id="atyfBygB2vvasssAfOce-36" value="+ describe(std::string): Op&amp;" style="text;strokeColor=none;fillColor=none;align=left;verticalAlign=top;spacingLeft=4;spacingRight=4;overflow=hidden;rotatable=0;points=[[0,0.5],[1,0.5]];portConstraint=eastwest;" vertex="1" parent="atyfBygB2vvasssAfOce-33">
          <mxGeometry y="60" width="280" height="26" as="geometry" />
        </mxCell>
        <mxCell id="atyfBygB2vvasssAfOce-39" value="" style="line;strokeWidth=1;fillColor=none;align=left;verticalAlign=middle;spacingTop=-1;spacingLeft=3;spacingRight=3;rotatable=0;labelPosition=right;points=[];portConstraint=eastwest;" vertex="1" parent="atyfBygB2vvasssAfOce-33">
          <mxGeometry y="86" width="280" height="8" as="geometry" />
        </mxCell>
        <mxCell id="atyfBygB2vvasssAfOce-40" value="+ name: std::string" style="text;strokeColor=none;fillColor=none;align=left;verticalAlign=top;spacingLeft=4;spacingRight=4;overflow=hidden;rotatable=0;points=[[0,0.5],[1,0.5]];portConstraint=eastwest;" vertex="1" parent="atyfBygB2vvasssAfOce-33">
          <mxGeometry y="94" width="280" height="26" as="geometry" />
        </mxCell>
        <mxCell id="atyfBygB2vvasssAfOce-41" value="" style="line;strokeWidth=1;fillColor=none;align=left;verticalAlign=middle;spacingTop=-1;spacingLeft=3;spacingRight=3;rotatable=0;labelPosition=right;points=[];portConstraint=eastwest;" vertex="1" parent="atyfBygB2vvasssAfOce-33">
          <mxGeometry y="120" width="280" height="8" as="geometry" />
        </mxCell>
        <mxCell id="atyfBygB2vvasssAfOce-42" value="+ num_inputs: size_t" style="text;strokeColor=none;fillColor=none;align=left;verticalAlign=top;spacingLeft=4;spacingRight=4;overflow=hidden;rotatable=0;points=[[0,0.5],[1,0.5]];portConstraint=eastwest;" vertex="1" parent="atyfBygB2vvasssAfOce-33">
          <mxGeometry y="128" width="280" height="26" as="geometry" />
        </mxCell>
        <mxCell id="atyfBygB2vvasssAfOce-43" value="" style="line;strokeWidth=1;fillColor=none;align=left;verticalAlign=middle;spacingTop=-1;spacingLeft=3;spacingRight=3;rotatable=0;labelPosition=right;points=[];portConstraint=eastwest;" vertex="1" parent="atyfBygB2vvasssAfOce-33">
          <mxGeometry y="154" width="280" height="8" as="geometry" />
        </mxCell>
        <mxCell id="atyfBygB2vvasssAfOce-44" value="+ std::string: desc" style="text;strokeColor=none;fillColor=none;align=left;verticalAlign=top;spacingLeft=4;spacingRight=4;overflow=hidden;rotatable=0;points=[[0,0.5],[1,0.5]];portConstraint=eastwest;" vertex="1" parent="atyfBygB2vvasssAfOce-33">
          <mxGeometry y="162" width="280" height="26" as="geometry" />
        </mxCell>
        <mxCell id="atyfBygB2vvasssAfOce-46" value="&lt;h1&gt;成员&lt;/h1&gt;&lt;p&gt;Op是Registry的成员，那么就可以在Registry访问到Op的成员&lt;/p&gt;" style="text;html=1;strokeColor=none;fillColor=none;spacing=5;spacingTop=-20;whiteSpace=wrap;overflow=hidden;rounded=0;" vertex="1" parent="1">
          <mxGeometry x="40" y="360" width="190" height="120" as="geometry" />
        </mxCell>
        <mxCell id="atyfBygB2vvasssAfOce-49" value="1" style="endArrow=open;html=1;endSize=12;startArrow=diamondThin;startSize=14;startFill=0;edgeStyle=orthogonalEdgeStyle;align=left;verticalAlign=bottom;rounded=0;entryX=0.004;entryY=0.096;entryDx=0;entryDy=0;entryPerimeter=0;" edge="1" parent="1" target="atyfBygB2vvasssAfOce-33">
          <mxGeometry x="-1" y="3" relative="1" as="geometry">
            <mxPoint x="280" y="650" as="sourcePoint" />
            <mxPoint x="440" y="650" as="targetPoint" />
          </mxGeometry>
        </mxCell>
        <mxCell id="atyfBygB2vvasssAfOce-50" value="" style="line;strokeWidth=1;fillColor=none;align=left;verticalAlign=middle;spacingTop=-1;spacingLeft=3;spacingRight=3;rotatable=0;labelPosition=right;points=[];portConstraint=eastwest;" vertex="1" parent="1">
          <mxGeometry y="310" width="760" height="8" as="geometry" />
        </mxCell>
      </root>
    </mxGraphModel>
  </diagram>
</mxfile>
